<svg width="24" height="28" viewBox="0 0 24 28" fill="none" xmlns="http://www.w3.org/2000/svg">
<path d="M12.0005 0C5.84447 0 0.799988 4.67824 0.799988 10.3874C0.799988 12.5994 1.55991 14.6549 2.84567 16.345L10.6339 27.1054C11.7245 28.4304 12.4494 28.1789 13.3563 27.0354L21.9467 15.2012C22.1203 14.9092 22.2564 14.5984 22.3751 14.2811C22.9051 13.0766 23.2 11.7628 23.2 10.3874C23.2 4.67824 18.1569 0 12.0005 0ZM9.81991 6.00824C10.5854 6.00824 11.3145 6.40528 11.97 6.76396C12.6252 6.40528 13.3543 6.00824 14.1199 6.00796C16.4761 6.00796 18.3999 7.79716 18.3999 9.98872V9.9974C18.3708 11.851 16.7659 13.5682 15.2687 14.9226C13.7715 16.2772 12.2861 17.2404 12.2861 17.2404C12.1757 17.311 12.0472 17.348 11.9161 17.3472C11.7851 17.3463 11.6571 17.3076 11.5475 17.2357C11.5475 17.2357 10.1562 16.3103 8.72063 14.9755C7.28507 13.641 5.73695 11.9151 5.54319 10.0458C5.54115 10.0269 5.54012 10.0078 5.54011 9.98872C5.54011 7.79744 7.46371 6.00824 9.81991 6.00824V6.00824Z" fill="#FAFAFA"/>
</svg>
